# xmcd CD database file
#
# Track frame offsets:
#	150
#	22370
#	44140
#	65570
#	95520
#	115468
#	139255
#	162603
#	185528
#	208680
#	231648
#	252298
#	275013
#
# Disc length: 3986 seconds
#
# Revision: 4
# Processed by: cddbd v1.5.2PL0 Copyright (c) Steve Scherf et al.
# Submitted via: CDex 1.70beta2
#
DISCID=db0f900d
DTITLE=Never The Bride - Never The Bride
DYEAR=1995
DGENRE=Women
TTITLE0=never the bride - saving grace
TTITLE1=never the bride - 2 into 1
TTITLE2=never the bride - second look
TTITLE3=never the bride - loser in love
TTITLE4=never the bride - rough'n'ready
TTITLE5=never the bride - 3 good reasons
TTITLE6=never the bride - cry out
TTITLE7=never the bride - miracle of life
TTITLE8=never the bride - this is a cry for love
TTITLE9=never the bride - betty's song
TTITLE10=never the bride - welcome to my world
TTITLE11=never the bride - doctors don't dance
TTITLE12=never the bride - the answer
EXTD=YEAR: 1995
EXTT0=
EXTT1=
EXTT2=
EXTT3=
EXTT4=
EXTT5=
EXTT6=
EXTT7=
EXTT8=
EXTT9=
EXTT10=
EXTT11=
EXTT12=
PLAYORDER=
